<?xml version="1.0" encoding="utf-8"?>
<!-- Generator: Adobe Illustrator 16.0.0, SVG Export Plug-In . SVG Version: 6.00 Build 0)  -->
<!DOCTYPE svg PUBLIC "-//W3C//DTD SVG 1.1//EN" "http://www.w3.org/Graphics/SVG/1.1/DTD/svg11.dtd">
<svg version="1.1" id="Layer_1" xmlns="http://www.w3.org/2000/svg" xmlns:xlink="http://www.w3.org/1999/xlink" x="0px" y="0px"
	 width="568.365px" height="330.203px" viewBox="0 0 568.365 330.203" enable-background="new 0 0 568.365 330.203"
	 xml:space="preserve">
<g>
	<g>
		<path d="M204.069,114.155l44.805-62.491l-12.085,45.689h15.033l-19.489,57.044c0.989,0.038,1.98,0.064,2.98,0.064
			c42.651,0,77.23-34.579,77.23-77.232S277.964,0,235.313,0c-42.654,0-77.231,34.576-77.231,77.229
			c0,30.265,17.411,56.458,42.761,69.124l18.26-32.198H204.069z"/>
		<path d="M375.037,134.492l-38.025,64.152l-38.025-64.151l-42.121,92.706h-49.408l24.875-72.801
			c-11.285-0.428-21.949-3.277-31.49-8.044L130.67,270.087h153.574c0.001,0,20.341-41.857,20.341-41.857l32.426,56.598
			l32.424-56.598l20.34,41.857c0.002,0,46.869,0,46.869,0L375.037,134.492z"/>
	</g>
	<g>
		<path d="M30.876,306.693c0,8.959-6.923,14.328-15.438,14.328C6.923,321.021,0,315.652,0,306.693
			c0-8.773,6.959-14.475,15.438-14.475S30.876,297.919,30.876,306.693z M10.218,306.841c0,3.184,2.147,5.369,5.22,5.369
			c3.073,0,5.221-2.186,5.221-5.369c0-2.961-2-5.441-5.221-5.441S10.218,303.88,10.218,306.841z"/>
		<path d="M35.202,292.662h10.145v18.955h8.515v8.959H35.202V292.662z"/>
		<path d="M60.743,292.662h10.441l3.85,14.662h0.26c0.185-1.223,0.369-2.52,0.703-3.703l3.146-10.959h10.329l4.591,27.914h-9.811
			l-1.37-15.289h-0.185c-0.186,0.926-0.371,1.889-0.666,2.777l-4.037,12.512h-5.923l-3.628-11.809
			c-0.297-1.186-0.555-2.295-0.629-3.48h-0.334c-0.074,1.109-0.148,2.258-0.26,3.369l-1.184,11.92h-9.811L60.743,292.662z"/>
		<path d="M95.907,326.722l4.479-13.809h9.589l-6.627,13.809H95.907z"/>
		<path d="M119.448,292.662h10.145v27.914h-10.145V292.662z"/>
		<path d="M141.695,304.064h0.222c1.852-2.146,3.259-3.59,6.332-3.59c4.887,0,6.812,3.664,6.812,7.996v12.105h-9.552v-9.588
			c0-1.148,0-2.777-1.629-2.777c-1.592,0-1.592,1.629-1.592,2.777v9.588h-9.552v-19.658h9.329L141.695,304.064z"/>
		<path d="M173.047,309.433c-0.999-0.852-2.146-1.629-3.516-1.629c-1.74,0-3,1.146-3,2.924c0,1.557,1.26,2.814,2.814,2.814
			c1.48,0,2.592-0.74,3.701-1.518l-0.406,8.07c-1.481,0.48-3.146,0.926-4.813,0.926c-6.368,0-10.921-3.592-10.921-10.182
			c0-5.813,4.258-10.365,10.145-10.365c1.998,0,4.072,0.369,5.996,0.998V309.433z"/>
		<path d="M189.518,316.429c0,2.926-2.813,4.592-5.516,4.592s-5.516-1.666-5.516-4.592c0-2.961,2.813-4.701,5.516-4.701
			S189.518,313.468,189.518,316.429z"/>
		<path d="M248.894,306.693c0,8.959-6.923,14.328-15.438,14.328c-8.515,0-15.438-5.369-15.438-14.328
			c0-8.773,6.96-14.475,15.438-14.475C241.934,292.218,248.894,297.919,248.894,306.693z M228.236,306.841
			c0,3.184,2.147,5.369,5.22,5.369c3.073,0,5.221-2.186,5.221-5.369c0-2.961-2-5.441-5.221-5.441S228.236,303.88,228.236,306.841z"
			/>
		<path d="M252.479,292.662h10.145v18.955h8.515v8.959h-18.659V292.662z"/>
		<path d="M280.241,292.662h10.441l3.85,14.662h0.26c0.186-1.223,0.369-2.52,0.703-3.703l3.146-10.959h10.33l4.59,27.914h-9.811
			l-1.371-15.289h-0.184c-0.186,0.926-0.371,1.889-0.666,2.777l-4.037,12.512h-5.922l-3.629-11.809
			c-0.297-1.186-0.555-2.295-0.629-3.48h-0.334c-0.074,1.109-0.146,2.258-0.26,3.369l-1.184,11.92h-9.811L280.241,292.662z"/>
		<path d="M332.432,292.662h10.328c9.367,0,16.551,4.109,16.551,14.365c0,8.293-5.85,13.549-14.033,13.549h-12.846V292.662z
			 M342.576,312.21h0.629c3.369,0,5.961-1.555,5.961-5.221c0-3.926-2.258-5.59-5.961-5.59h-0.629V312.21z"/>
		<path d="M373.188,294.845c0,3.223-2.518,4.629-5.258,4.629c-2.738,0-5.256-1.406-5.256-4.629c0-2.85,2.258-4.59,5.256-4.59
			C370.93,290.255,373.188,291.996,373.188,294.845z M363.154,300.917h9.553v19.658h-9.553V300.917z"/>
		<path d="M399.879,319.429c0,7.664-6.295,10.773-13.145,10.773c-3.035,0-5.627-0.518-8.439-1.555l-0.963-0.334l2.109-6.627
			c1.814,1.555,4.555,2.406,6.887,2.406c2.592,0,4.146-1.887,4.369-4.332l0.184-1.998h-0.258c-0.965,2.146-3.518,3.258-5.777,3.258
			c-5.367,0-8.439-5.406-8.439-10.293s3.035-10.254,8.477-10.254c2.518,0,4.443,1.184,5.74,3.258h0.258l-0.258-2.814h9.256V319.429z
			 M388.549,313.542c1.629,0,2.406-1.258,2.406-2.74c0-1.48-0.889-2.852-2.48-2.852c-1.555,0-2.629,1.26-2.629,2.814
			C385.846,312.357,386.883,313.542,388.549,313.542z"/>
		<path d="M414.422,294.845c0,3.223-2.518,4.629-5.258,4.629c-2.738,0-5.256-1.406-5.256-4.629c0-2.85,2.258-4.59,5.256-4.59
			C412.164,290.255,414.422,291.996,414.422,294.845z M404.389,300.917h9.553v19.658h-9.553V300.917z"/>
		<path d="M429.154,301.177l3.184-0.148v7.516l-3.184-0.186v12.217h-9.625v-12.217l-2.334,0.186v-7.516l2.334,0.148v-6.59h9.625
			V301.177z"/>
		<path d="M448.143,317.986h-0.221c-1.74,1.85-3.297,3.035-5.998,3.035c-5.332,0-8.293-5.406-8.293-10.182
			c0-4.961,3-10.365,8.553-10.365c2.369,0,4.33,0.852,5.738,2.775h0.221l-0.295-2.332h9.367v19.658h-9.367L448.143,317.986z
			 M445.59,313.542c1.813,0,2.553-1.445,2.553-2.961c0-1.52-1.037-2.631-2.553-2.631c-1.518,0-2.48,1.26-2.48,2.705
			C443.109,312.21,443.85,313.542,445.59,313.542z"/>
		<path d="M461.207,290.552h9.553v30.023h-9.553V290.552z"/>
		<path d="M473.643,326.722l4.48-13.809h9.588l-6.627,13.809H473.643z"/>
		<path d="M495.703,292.662h10.145v27.914h-10.145V292.662z"/>
		<path d="M518.691,304.064h0.223c1.852-2.146,3.258-3.59,6.33-3.59c4.887,0,6.813,3.664,6.813,7.996v12.105h-9.553v-9.588
			c0-1.148,0-2.777-1.629-2.777c-1.592,0-1.592,1.629-1.592,2.777v9.588h-9.551v-19.658h9.328L518.691,304.064z"/>
		<path d="M552.266,309.433c-1-0.852-2.148-1.629-3.518-1.629c-1.74,0-2.998,1.146-2.998,2.924c0,1.557,1.258,2.814,2.813,2.814
			c1.48,0,2.592-0.74,3.703-1.518l-0.408,8.07c-1.48,0.48-3.146,0.926-4.813,0.926c-6.367,0-10.922-3.592-10.922-10.182
			c0-5.813,4.258-10.365,10.145-10.365c2,0,4.072,0.369,5.998,0.998V309.433z"/>
		<path d="M568.365,316.429c0,2.926-2.813,4.592-5.516,4.592s-5.516-1.666-5.516-4.592c0-2.961,2.813-4.701,5.516-4.701
			S568.365,313.468,568.365,316.429z"/>
	</g>
</g>
</svg>
